<svg xmlns="http://www.w3.org/2000/svg" version="1.1" xmlns:xlink="http://www.w3.org/1999/xlink" width="512" height="512" x="0" y="0" viewBox="0 0 100 100" style="enable-background:new 0 0 512 512" xml:space="preserve"><g><path fill="#000000" fill-rule="evenodd" d="M9.34 68.046c1.152-4.156 3.08-7.958 5.352-11.63.885-1.432 1.85-2.817 2.847-4.185.141-.194.212-.384.2-.611-.321-6.398 2.339-11.898 6.194-17.044a46.02 46.02 0 0 1 2.973-3.548c.242-.263.383-.535.375-.89-.054-2.494.485-4.905 1.291-7.274.111-.327.157-.566-.284-.73-5.832-2.153-5.98-9.068-2.494-12.715C29.38 5.67 35.897 5.454 39.82 9.2l.003.003c.894.854.91.869 2.051.37 3.81-1.663 7.833-2.346 12.036-2.162.978.043 1.966.11 2.926.331.324.076.591.046.836-.214 2.968-3.146 8.736-3.2 12.056-.517 3.065 2.477 4.158 5.537 3.06 9.162-.157.516-.06.836.285 1.228 3.163 3.595 5.143 7.7 5.952 12.217.816 4.56-.084 8.87-2.908 12.783l-.04.055c-.108.164-.202.3-.282.413-.203.29-.31.444-.302.59.01.166.17.321.507.653.087.086.186.183.298.296 2.619 2.636 4.61 5.594 5.537 9.08 1.354 5.085.008 9.504-3.992 13.26-.04.038-.076.08-.134.145l-.134.151c4.37 1.713 6.297 4.893 6.605 9.087.234-.054.463-.109.688-.163.48-.114.945-.225 1.414-.317 3.914-.762 5.726 2.065 5.1 4.661-1.086 4.512-3.91 7.846-8.724 9.569-2.312.828-4.714.644-7.094.12-2.292-.506-4.535-1.16-6.778-1.813-1.326-.386-2.653-.773-3.99-1.129-1.502-.4-2.93-.466-4.413.117-1.503.592-3.112.894-4.743 1.057-.494.049-.67.334-.85.692-.743 1.484-1.682 2.84-3.023 3.959-1.67 1.394-3.68 1.943-5.873 2.024-2.04.076-4.058-.177-6.072-.429h-.001c-.318-.04-.636-.08-.954-.118-3.355-.406-6.7-.889-9.98-1.67-4.956-1.182-9.649-2.887-13.603-5.945-3.63-2.807-5.972-6.312-6.613-10.661-.397-2.699-.094-5.36.67-8.039zM75.158 26.9c-.925-2.72-2.376-5.196-4.154-7.533-3.08-4.052-7.012-7.05-12.303-8.428-3.507-.913-7.057-1.165-10.606-.344-7.698 1.78-13.08 6.082-16.219 12.682-1.35 2.84-1.859 5.82-1.242 8.904.872 4.359 3.431 7.826 7.145 10.552 5.917 4.344 12.754 6.017 20.3 5.338l.106-.009c.288-.022.604-.047.872-.293-.217-.637-.509-1.252-.801-1.868-.135-.283-.269-.566-.396-.851-.182-.408-.432-.681-.93-.822-.794-.225-1.254-.84-1.19-1.469.072-.718.633-.995 1.313-1.109 1.388-.231 2.777-.454 4.167-.676l2.279-.367.12-.019c.485-.075.983-.152 1.152-.68.195-.605.114-1.154-.42-1.627-.475-.423-1.012-.705-1.64-.908a2.171 2.171 0 0 1-1.458-2.452c.211-1.103 1.002-1.766 2.215-1.785 1.105-.017 2.21-.014 3.314-.011h.001c.532 0 1.063.002 1.595.001.743-.001 1.215.332 1.472.954.514 1.24-.023 2.555-1.398 3.23-.693.339-1.296.754-1.794 1.294-.84.907-.486 1.885.762 2.157l.074.016c.186.04.373.08.552.138.505.163.87.436.97.958.102.535-.206.869-.612 1.172-.239.177-.522.277-.818.382-.143.05-.289.102-.434.163l.122.304c.256.637.5 1.247.902 1.819.893-.494 1.62-1.062 2.326-1.654 3.682-3.089 5.71-6.866 5.73-11.463.008-1.915-.42-3.773-1.074-5.696zm-9.357 29.976c-.467 1.736-1.646 3.039-3.094 4.17-1.688 1.317-3.554 2.397-5.546 3.29-7.557 3.39-15.381 4.493-23.547 2.09-5.994-1.764-10.842-4.935-14.153-9.898a8.956 8.956 0 0 1-.037-.055c-.132-.204-.273-.42-.706-.482-3.535 5.212-6.456 10.657-7.083 16.948.353.002.469-.162.572-.308.024-.035.049-.07.075-.1 3.237-3.728 7.588-5.32 12.685-5.35 3.175-.018 6.17.81 9.028 2.023 4.165 1.767 7.776 4.26 11.104 7.113l2.196 1.879.007.006 1.025.876.343-.163c.29-.14.618-.298.959-.432 2.318-.914 4.595-.322 5.78 1.53.877 1.369 1.091 2.872.922 4.43a1.733 1.733 0 0 1-.03.172c-.041.195-.082.39.109.576a4.477 4.477 0 0 0 1.127-.18c6.114-1.708 10.207-5.322 12.337-10.795.202-.52.201-1.003-.032-1.525-.798-1.782-1.59-3.567-2.381-5.352-.8-1.803-1.6-3.607-2.407-5.408-.158-.353-.116-.592.14-.888a41.487 41.487 0 0 0 1.61-2.016c.558-.734 1.322-1.048 2.287-.995.72.04 1.431.132 2.143.247.077.012.155.029.234.046.327.07.68.146 1.073-.052-.398-.702-1.057-1.048-1.79-1.25a24.526 24.526 0 0 0-2.592-.554c-.42-.067-.605-.19-.546-.585.266-1.783-.323-3.326-1.642-4.64-.26-.26-.209-.457-.045-.694.337-.487.776-.89 1.274-1.242.032-.023.067-.043.102-.064.142-.084.29-.17.272-.406-.047.005-.094.006-.141.008-.1.003-.198.005-.277.041-.693.314-.996.065-1.249-.552-.47-1.15-.993-2.28-1.516-3.41v-.001l-.36-.78c-.372-.81-1.198-1.064-2.155-.686-.815.322-.985.807-.594 1.658l.146.318a277.136 277.136 0 0 1 1.534 3.379c.018.04.039.08.06.12.099.194.207.404.068.716-1.312-.35-2.674-.456-4.025-.242-1.35.213-2.618.671-3.884 1.393.427 0 .843.002 1.25.004.908.004 1.778.009 2.647-.01 1.254-.028 2.502-.03 3.712.313 2.575.73 3.75 2.936 3.01 5.77zm6.244 10.71c-.598.448-.605.99-.328 1.595.21.455.415.913.62 1.37.337.755.675 1.51 1.033 2.257.07.146.131.298.192.45.15.376.301.758.611 1.087.8-.413 1.634-.681 2.524-.967l.13-.042-.02-.045c-.78-1.87-1.539-3.688-2.477-5.434-.391-.73-1.197-.792-2.285-.272zm-3.609-5.797 1.709 3.65c.896-.465 1.792-.744 2.792-1.035-.18-.39-.354-.776-.526-1.157-.408-.905-.804-1.782-1.242-2.64-.314-.615-1.196-.789-1.954-.502-.734.277-1.025.846-.779 1.684zm7.18 16.301.263.551c.21.437.421.873.618 1.315.163.367.408.433.792.286a28.13 28.13 0 0 1 1.678-.591c.414-.129.518-.332.35-.696-.134-.293-.261-.589-.388-.885-.144-.334-.287-.67-.442-1-.373-.793-1.103-1.069-1.996-.78-.892.29-1.169.805-.876 1.8zM54.62 21.953c1.61.432 2.458 1.473 2.504 3.042.065 2.228-.582 4.322-1.504 6.358-.638 1.407-1.419 2.724-2.776 3.69-2.117 1.506-5.09 1.708-7.155.491-1.778-1.048-2.27-2.652-1.897-4.36.831-3.808 3.12-6.781 6.854-8.728 1.182-.616 2.538-.794 3.974-.493zm-1.108 6.537.053-.02c.076-.027.152-.055.224-.088.61-.287.787-.766.583-1.318-.188-.511-.608-.838-1.249-.799-.637.04-.986.407-1.127.939-.18.683.407 1.244 1.464 1.306a3.95 3.95 0 0 1 .052-.02zm21.623 3.469c-.195-1.2-.645-2.325-1.178-3.481-.648-1.448-1.392-2.796-2.34-4.041-.74-.973-1.631-1.776-2.984-2.025-1.441-.266-2.637.501-2.72 1.822-.027.427.05.877.173 1.293.962 3.246 2.981 5.992 5.054 8.706.329.43.839.697 1.48.702 1.566.011 2.77-1.412 2.515-2.976zm-4.296-4.262c-.18.504-.747.727-1.384.587-.777-.556-.962-1.095-.548-1.525.36-.373.803-.634 1.381-.332.553.29.744.726.55 1.27z" clip-rule="evenodd" opacity="1" data-original="#000000"></path></g></svg>